<svg width="1900" height="1318" viewBox="0 0 1900 1318" fill="none" xmlns="http://www.w3.org/2000/svg">
<g clip-path="url(#clip0_1963_2)">
<path d="M1900 0H0V1318H1900V0Z" fill="#00A3FF"/>
<path d="M1900 808.773H0V1318H1900V808.773Z" fill="#8BD450"/>
<rect x="739" y="612.973" width="139" height="150" fill="#B0B0B0"/>
<rect x="725" y="762.973" width="168" height="46" fill="#D9D9D9"/>
<rect x="751" y="620.973" width="114" height="82" fill="#292929"/>
<rect x="990.868" y="643.449" width="30.1252" height="31.4351" fill="#353371"/>
<rect x="970.894" y="659.166" width="29.7977" height="31.4351" fill="#353371"/>
<rect x="1005.93" y="685.035" width="29.7977" height="31.4351" fill="#353371"/>
<rect x="980.063" y="685.035" width="29.7977" height="31.4351" fill="#353371"/>
<rect x="1011.5" y="659.166" width="29.7977" height="31.4351" fill="#353371"/>
<rect x="1106.46" y="586.145" width="30.1252" height="31.4351" fill="#353371"/>
<rect x="1086.48" y="601.863" width="29.7977" height="31.4351" fill="#353371"/>
<rect x="1091.72" y="627.732" width="59.5955" height="31.4351" fill="#353371"/>
<rect x="1121.52" y="627.732" width="29.7977" height="31.4351" fill="#353371"/>
<rect x="1127.09" y="601.863" width="29.7977" height="31.4351" fill="#353371"/>
<rect x="1209.6" y="685.035" width="30.1252" height="31.4351" fill="#353371"/>
<rect x="1189.63" y="700.752" width="29.7977" height="31.4351" fill="#353371"/>
<rect x="1194.87" y="726.621" width="59.5955" height="31.4351" fill="#353371"/>
<rect x="1224.67" y="726.621" width="29.7977" height="31.4351" fill="#353371"/>
<rect x="1230.23" y="700.752" width="29.7977" height="31.4351" fill="#353371"/>
<rect x="1330.43" y="638.537" width="30.1252" height="31.4351" fill="#353371"/>
<rect x="1310.46" y="654.254" width="29.7977" height="31.4351" fill="#353371"/>
<rect x="1315.7" y="680.123" width="59.5955" height="31.4351" fill="#353371"/>
<rect x="1345.49" y="680.123" width="29.7977" height="31.4351" fill="#353371"/>
<rect x="1351.06" y="654.254" width="29.7977" height="31.4351" fill="#353371"/>
<rect x="1456.5" y="685.69" width="30.1252" height="31.4351" fill="#353371"/>
<rect x="1436.52" y="701.407" width="29.7977" height="31.4351" fill="#353371"/>
<rect x="1441.76" y="727.276" width="59.5955" height="31.4351" fill="#353371"/>
<rect x="1471.56" y="727.276" width="29.7977" height="31.4351" fill="#353371"/>
<rect x="1477.13" y="701.407" width="29.7977" height="31.4351" fill="#353371"/>
<rect x="1001.67" y="705.009" width="8.18619" height="104.456" fill="#184B1B"/>
<rect x="1117.26" y="643.449" width="8.18619" height="166.016" fill="#184B1B"/>
<rect x="1220.41" y="746.268" width="8.18619" height="63.1976" fill="#184B1B"/>
<rect x="1341.24" y="701.407" width="8.18619" height="108.058" fill="#184B1B"/>
<rect x="1467.3" y="746.268" width="8.18619" height="63.1976" fill="#184B1B"/>
<rect x="134.253" y="643.449" width="30.1252" height="31.4351" fill="#353371"/>
<rect x="114.28" y="659.166" width="29.7977" height="31.4351" fill="#353371"/>
<rect x="149.317" y="685.035" width="29.7977" height="31.4351" fill="#353371"/>
<rect x="123.448" y="685.035" width="29.7977" height="31.4351" fill="#353371"/>
<rect x="154.883" y="659.166" width="29.7977" height="31.4351" fill="#353371"/>
<rect x="249.842" y="586.145" width="30.1252" height="31.4351" fill="#353371"/>
<rect x="229.868" y="601.863" width="29.7977" height="31.4351" fill="#353371"/>
<rect x="235.107" y="627.732" width="59.5955" height="31.4351" fill="#353371"/>
<rect x="264.905" y="627.732" width="29.7977" height="31.4351" fill="#353371"/>
<rect x="270.472" y="601.863" width="29.7977" height="31.4351" fill="#353371"/>
<rect x="352.989" y="685.035" width="30.1252" height="31.4351" fill="#353371"/>
<rect x="333.014" y="700.752" width="29.7977" height="31.4351" fill="#353371"/>
<rect x="338.254" y="726.621" width="59.5955" height="31.4351" fill="#353371"/>
<rect x="368.051" y="726.621" width="29.7977" height="31.4351" fill="#353371"/>
<rect x="373.618" y="700.752" width="29.7977" height="31.4351" fill="#353371"/>
<rect x="473.817" y="638.537" width="30.1252" height="31.4351" fill="#353371"/>
<rect x="453.843" y="654.254" width="29.7977" height="31.4351" fill="#353371"/>
<rect x="459.082" y="680.123" width="59.5955" height="31.4351" fill="#353371"/>
<rect x="488.879" y="680.123" width="29.7977" height="31.4351" fill="#353371"/>
<rect x="494.446" y="654.254" width="29.7977" height="31.4351" fill="#353371"/>
<rect x="599.884" y="685.689" width="30.1252" height="31.4351" fill="#353371"/>
<rect x="579.91" y="701.407" width="29.7977" height="31.4351" fill="#353371"/>
<rect x="585.149" y="727.276" width="59.5955" height="31.4351" fill="#353371"/>
<rect x="614.947" y="727.276" width="29.7977" height="31.4351" fill="#353371"/>
<rect x="620.514" y="701.407" width="29.7977" height="31.4351" fill="#353371"/>
<rect x="145.06" y="705.009" width="8.18619" height="104.456" fill="#184B1B"/>
<rect x="260.648" y="643.449" width="8.18619" height="166.016" fill="#184B1B"/>
<rect x="363.794" y="746.268" width="8.18619" height="63.1976" fill="#184B1B"/>
<rect x="484.623" y="701.407" width="8.18619" height="108.058" fill="#184B1B"/>
<rect x="610.69" y="746.268" width="8.18619" height="63.1976" fill="#184B1B"/>
</g>
<defs>
<clipPath id="clip0_1963_2">
<rect width="1900" height="1318" fill="white"/>
</clipPath>
</defs>
</svg>
