<svg width="1900" height="1263" viewBox="0 0 1900 1263" fill="none" xmlns="http://www.w3.org/2000/svg">
<rect width="1900" height="1262.66" fill="#FF0000"/>
<path d="M72.705 245.6V107H100.005V80H127.005V52.7H157.605V80H184.605V107H212.205V245.6H181.605V191.3H103.005V245.6H72.705ZM103.005 161H181.605V110H154.605V83H130.005V110H103.005V161ZM209.486 245.6V215.6H236.786V83H209.486V52.7H294.386V83H266.786V215.6H294.386V245.6H209.486ZM291.775 245.6V107H319.075V80H346.075V52.7H376.675V80H403.675V107H431.275V245.6H400.675V191.3H322.075V245.6H291.775ZM322.075 161H400.675V110H373.675V83H349.075V110H322.075V161ZM428.557 245.6V215.6H455.857V83H428.557V52.7H513.457V83H485.857V215.6H513.457V245.6H428.557ZM510.846 245.6V107H538.146V80H565.146V52.7H595.746V80H622.746V107H650.346V245.6H619.746V191.3H541.146V245.6H510.846ZM541.146 161H619.746V110H592.746V83H568.146V110H541.146V161ZM647.627 245.6V215.6H674.927V83H647.627V52.7H732.527V83H704.927V215.6H732.527V245.6H647.627ZM729.916 245.6V107H757.216V80H784.216V52.7H814.816V80H841.816V107H869.416V245.6H838.816V191.3H760.216V245.6H729.916ZM760.216 161H838.816V110H811.816V83H787.216V110H760.216V161ZM866.697 245.6V215.6H893.997V83H866.697V52.7H951.597V83H923.997V215.6H951.597V245.6H866.697ZM948.986 245.6V107H976.286V80H1003.29V52.7H1033.89V80H1060.89V107H1088.49V245.6H1057.89V191.3H979.286V245.6H948.986ZM979.286 161H1057.89V110H1030.89V83H1006.29V110H979.286V161ZM1085.77 245.6V215.6H1113.07V83H1085.77V52.7H1170.67V83H1143.07V215.6H1170.67V245.6H1085.77ZM1168.06 245.6V107H1195.36V80H1222.36V52.7H1252.96V80H1279.96V107H1307.56V245.6H1276.96V191.3H1198.36V245.6H1168.06ZM1198.36 161H1276.96V110H1249.96V83H1225.36V110H1198.36V161ZM1304.84 245.6V215.6H1332.14V83H1304.84V52.7H1389.74V83H1362.14V215.6H1389.74V245.6H1304.84ZM1387.13 245.6V107H1414.43V80H1441.43V52.7H1472.03V80H1499.03V107H1526.63V245.6H1496.03V191.3H1417.43V245.6H1387.13ZM1417.43 161H1496.03V110H1469.03V83H1444.43V110H1417.43V161ZM1523.91 245.6V215.6H1551.21V83H1523.91V52.7H1608.81V83H1581.21V215.6H1608.81V245.6H1523.91ZM1606.2 245.6V107H1633.5V80H1660.5V52.7H1691.1V80H1718.1V107H1745.7V245.6H1715.1V191.3H1636.5V245.6H1606.2ZM1636.5 161H1715.1V110H1688.1V83H1663.5V110H1636.5V161ZM1742.98 245.6V215.6H1770.28V83H1742.98V52.7H1827.88V83H1800.28V215.6H1827.88V245.6H1742.98ZM72.705 380.6V242H100.005V215H127.005V187.7H157.605V215H184.605V242H212.205V380.6H181.605V326.3H103.005V380.6H72.705ZM103.005 296H181.605V245H154.605V218H130.005V245H103.005V296ZM209.486 380.6V350.6H236.786V218H209.486V187.7H294.386V218H266.786V350.6H294.386V380.6H209.486ZM291.775 380.6V242H319.075V215H346.075V187.7H376.675V215H403.675V242H431.275V380.6H400.675V326.3H322.075V380.6H291.775ZM322.075 296H400.675V245H373.675V218H349.075V245H322.075V296ZM428.557 380.6V350.6H455.857V218H428.557V187.7H513.457V218H485.857V350.6H513.457V380.6H428.557ZM510.846 380.6V242H538.146V215H565.146V187.7H595.746V215H622.746V242H650.346V380.6H619.746V326.3H541.146V380.6H510.846ZM541.146 296H619.746V245H592.746V218H568.146V245H541.146V296ZM647.627 380.6V350.6H674.927V218H647.627V187.7H732.527V218H704.927V350.6H732.527V380.6H647.627ZM729.916 380.6V242H757.216V215H784.216V187.7H814.816V215H841.816V242H869.416V380.6H838.816V326.3H760.216V380.6H729.916ZM760.216 296H838.816V245H811.816V218H787.216V245H760.216V296ZM866.697 380.6V350.6H893.997V218H866.697V187.7H951.597V218H923.997V350.6H951.597V380.6H866.697ZM948.986 380.6V242H976.286V215H1003.29V187.7H1033.89V215H1060.89V242H1088.49V380.6H1057.89V326.3H979.286V380.6H948.986ZM979.286 296H1057.89V245H1030.89V218H1006.29V245H979.286V296ZM1085.77 380.6V350.6H1113.07V218H1085.77V187.7H1170.67V218H1143.07V350.6H1170.67V380.6H1085.77ZM1168.06 380.6V242H1195.36V215H1222.36V187.7H1252.96V215H1279.96V242H1307.56V380.6H1276.96V326.3H1198.36V380.6H1168.06ZM1198.36 296H1276.96V245H1249.96V218H1225.36V245H1198.36V296ZM1304.84 380.6V350.6H1332.14V218H1304.84V187.7H1389.74V218H1362.14V350.6H1389.74V380.6H1304.84ZM1387.13 380.6V242H1414.43V215H1441.43V187.7H1472.03V215H1499.03V242H1526.63V380.6H1496.03V326.3H1417.43V380.6H1387.13ZM1417.43 296H1496.03V245H1469.03V218H1444.43V245H1417.43V296ZM1523.91 380.6V350.6H1551.21V218H1523.91V187.7H1608.81V218H1581.21V350.6H1608.81V380.6H1523.91ZM1606.2 380.6V242H1633.5V215H1660.5V187.7H1691.1V215H1718.1V242H1745.7V380.6H1715.1V326.3H1636.5V380.6H1606.2ZM1636.5 296H1715.1V245H1688.1V218H1663.5V245H1636.5V296ZM1742.98 380.6V350.6H1770.28V218H1742.98V187.7H1827.88V218H1800.28V350.6H1827.88V380.6H1742.98ZM72.705 515.6V377H100.005V350H127.005V322.7H157.605V350H184.605V377H212.205V515.6H181.605V461.3H103.005V515.6H72.705ZM103.005 431H181.605V380H154.605V353H130.005V380H103.005V431ZM209.486 515.6V485.6H236.786V353H209.486V322.7H294.386V353H266.786V485.6H294.386V515.6H209.486ZM291.775 515.6V377H319.075V350H346.075V322.7H376.675V350H403.675V377H431.275V515.6H400.675V461.3H322.075V515.6H291.775ZM322.075 431H400.675V380H373.675V353H349.075V380H322.075V431ZM428.557 515.6V485.6H455.857V353H428.557V322.7H513.457V353H485.857V485.6H513.457V515.6H428.557ZM510.846 515.6V377H538.146V350H565.146V322.7H595.746V350H622.746V377H650.346V515.6H619.746V461.3H541.146V515.6H510.846ZM541.146 431H619.746V380H592.746V353H568.146V380H541.146V431ZM647.627 515.6V485.6H674.927V353H647.627V322.7H732.527V353H704.927V485.6H732.527V515.6H647.627ZM729.916 515.6V377H757.216V350H784.216V322.7H814.816V350H841.816V377H869.416V515.6H838.816V461.3H760.216V515.6H729.916ZM760.216 431H838.816V380H811.816V353H787.216V380H760.216V431ZM866.697 515.6V485.6H893.997V353H866.697V322.7H951.597V353H923.997V485.6H951.597V515.6H866.697ZM948.986 515.6V377H976.286V350H1003.29V322.7H1033.89V350H1060.89V377H1088.49V515.6H1057.89V461.3H979.286V515.6H948.986ZM979.286 431H1057.89V380H1030.89V353H1006.29V380H979.286V431ZM1085.77 515.6V485.6H1113.07V353H1085.77V322.7H1170.67V353H1143.07V485.6H1170.67V515.6H1085.77ZM1168.06 515.6V377H1195.36V350H1222.36V322.7H1252.96V350H1279.96V377H1307.56V515.6H1276.96V461.3H1198.36V515.6H1168.06ZM1198.36 431H1276.96V380H1249.96V353H1225.36V380H1198.36V431ZM1304.84 515.6V485.6H1332.14V353H1304.84V322.7H1389.74V353H1362.14V485.6H1389.74V515.6H1304.84ZM1387.13 515.6V377H1414.43V350H1441.43V322.7H1472.03V350H1499.03V377H1526.63V515.6H1496.03V461.3H1417.43V515.6H1387.13ZM1417.43 431H1496.03V380H1469.03V353H1444.43V380H1417.43V431ZM1523.91 515.6V485.6H1551.21V353H1523.91V322.7H1608.81V353H1581.21V485.6H1608.81V515.6H1523.91ZM1606.2 515.6V377H1633.5V350H1660.5V322.7H1691.1V350H1718.1V377H1745.7V515.6H1715.1V461.3H1636.5V515.6H1606.2ZM1636.5 431H1715.1V380H1688.1V353H1663.5V380H1636.5V431ZM1742.98 515.6V485.6H1770.28V353H1742.98V322.7H1827.88V353H1800.28V485.6H1827.88V515.6H1742.98ZM72.705 650.6V512H100.005V485H127.005V457.7H157.605V485H184.605V512H212.205V650.6H181.605V596.3H103.005V650.6H72.705ZM103.005 566H181.605V515H154.605V488H130.005V515H103.005V566ZM209.486 650.6V620.6H236.786V488H209.486V457.7H294.386V488H266.786V620.6H294.386V650.6H209.486ZM291.775 650.6V512H319.075V485H346.075V457.7H376.675V485H403.675V512H431.275V650.6H400.675V596.3H322.075V650.6H291.775ZM322.075 566H400.675V515H373.675V488H349.075V515H322.075V566ZM428.557 650.6V620.6H455.857V488H428.557V457.7H513.457V488H485.857V620.6H513.457V650.6H428.557ZM510.846 650.6V512H538.146V485H565.146V457.7H595.746V485H622.746V512H650.346V650.6H619.746V596.3H541.146V650.6H510.846ZM541.146 566H619.746V515H592.746V488H568.146V515H541.146V566ZM647.627 650.6V620.6H674.927V488H647.627V457.7H732.527V488H704.927V620.6H732.527V650.6H647.627ZM729.916 650.6V512H757.216V485H784.216V457.7H814.816V485H841.816V512H869.416V650.6H838.816V596.3H760.216V650.6H729.916ZM760.216 566H838.816V515H811.816V488H787.216V515H760.216V566ZM866.697 650.6V620.6H893.997V488H866.697V457.7H951.597V488H923.997V620.6H951.597V650.6H866.697ZM948.986 650.6V512H976.286V485H1003.29V457.7H1033.89V485H1060.89V512H1088.49V650.6H1057.89V596.3H979.286V650.6H948.986ZM979.286 566H1057.89V515H1030.89V488H1006.29V515H979.286V566ZM1085.77 650.6V620.6H1113.07V488H1085.77V457.7H1170.67V488H1143.07V620.6H1170.67V650.6H1085.77ZM1168.06 650.6V512H1195.36V485H1222.36V457.7H1252.96V485H1279.96V512H1307.56V650.6H1276.96V596.3H1198.36V650.6H1168.06ZM1198.36 566H1276.96V515H1249.96V488H1225.36V515H1198.36V566ZM1304.84 650.6V620.6H1332.14V488H1304.84V457.7H1389.74V488H1362.14V620.6H1389.74V650.6H1304.84ZM1387.13 650.6V512H1414.43V485H1441.43V457.7H1472.03V485H1499.03V512H1526.63V650.6H1496.03V596.3H1417.43V650.6H1387.13ZM1417.43 566H1496.03V515H1469.03V488H1444.43V515H1417.43V566ZM1523.91 650.6V620.6H1551.21V488H1523.91V457.7H1608.81V488H1581.21V620.6H1608.81V650.6H1523.91ZM1606.2 650.6V512H1633.5V485H1660.5V457.7H1691.1V485H1718.1V512H1745.7V650.6H1715.1V596.3H1636.5V650.6H1606.2ZM1636.5 566H1715.1V515H1688.1V488H1663.5V515H1636.5V566ZM1742.98 650.6V620.6H1770.28V488H1742.98V457.7H1827.88V488H1800.28V620.6H1827.88V650.6H1742.98ZM72.705 785.6V647H100.005V620H127.005V592.7H157.605V620H184.605V647H212.205V785.6H181.605V731.3H103.005V785.6H72.705ZM103.005 701H181.605V650H154.605V623H130.005V650H103.005V701ZM209.486 785.6V755.6H236.786V623H209.486V592.7H294.386V623H266.786V755.6H294.386V785.6H209.486ZM291.775 785.6V647H319.075V620H346.075V592.7H376.675V620H403.675V647H431.275V785.6H400.675V731.3H322.075V785.6H291.775ZM322.075 701H400.675V650H373.675V623H349.075V650H322.075V701ZM428.557 785.6V755.6H455.857V623H428.557V592.7H513.457V623H485.857V755.6H513.457V785.6H428.557ZM510.846 785.6V647H538.146V620H565.146V592.7H595.746V620H622.746V647H650.346V785.6H619.746V731.3H541.146V785.6H510.846ZM541.146 701H619.746V650H592.746V623H568.146V650H541.146V701ZM647.627 785.6V755.6H674.927V623H647.627V592.7H732.527V623H704.927V755.6H732.527V785.6H647.627ZM729.916 785.6V647H757.216V620H784.216V592.7H814.816V620H841.816V647H869.416V785.6H838.816V731.3H760.216V785.6H729.916ZM760.216 701H838.816V650H811.816V623H787.216V650H760.216V701ZM866.697 785.6V755.6H893.997V623H866.697V592.7H951.597V623H923.997V755.6H951.597V785.6H866.697ZM948.986 785.6V647H976.286V620H1003.29V592.7H1033.89V620H1060.89V647H1088.49V785.6H1057.89V731.3H979.286V785.6H948.986ZM979.286 701H1057.89V650H1030.89V623H1006.29V650H979.286V701ZM1085.77 785.6V755.6H1113.07V623H1085.77V592.7H1170.67V623H1143.07V755.6H1170.67V785.6H1085.77ZM1168.06 785.6V647H1195.36V620H1222.36V592.7H1252.96V620H1279.96V647H1307.56V785.6H1276.96V731.3H1198.36V785.6H1168.06ZM1198.36 701H1276.96V650H1249.96V623H1225.36V650H1198.36V701ZM1304.84 785.6V755.6H1332.14V623H1304.84V592.7H1389.74V623H1362.14V755.6H1389.74V785.6H1304.84ZM1387.13 785.6V647H1414.43V620H1441.43V592.7H1472.03V620H1499.03V647H1526.63V785.6H1496.03V731.3H1417.43V785.6H1387.13ZM1417.43 701H1496.03V650H1469.03V623H1444.43V650H1417.43V701ZM1523.91 785.6V755.6H1551.21V623H1523.91V592.7H1608.81V623H1581.21V755.6H1608.81V785.6H1523.91ZM1606.2 785.6V647H1633.5V620H1660.5V592.7H1691.1V620H1718.1V647H1745.7V785.6H1715.1V731.3H1636.5V785.6H1606.2ZM1636.5 701H1715.1V650H1688.1V623H1663.5V650H1636.5V701ZM1742.98 785.6V755.6H1770.28V623H1742.98V592.7H1827.88V623H1800.28V755.6H1827.88V785.6H1742.98ZM72.705 920.6V782H100.005V755H127.005V727.7H157.605V755H184.605V782H212.205V920.6H181.605V866.3H103.005V920.6H72.705ZM103.005 836H181.605V785H154.605V758H130.005V785H103.005V836ZM209.486 920.6V890.6H236.786V758H209.486V727.7H294.386V758H266.786V890.6H294.386V920.6H209.486ZM291.775 920.6V782H319.075V755H346.075V727.7H376.675V755H403.675V782H431.275V920.6H400.675V866.3H322.075V920.6H291.775ZM322.075 836H400.675V785H373.675V758H349.075V785H322.075V836ZM428.557 920.6V890.6H455.857V758H428.557V727.7H513.457V758H485.857V890.6H513.457V920.6H428.557ZM510.846 920.6V782H538.146V755H565.146V727.7H595.746V755H622.746V782H650.346V920.6H619.746V866.3H541.146V920.6H510.846ZM541.146 836H619.746V785H592.746V758H568.146V785H541.146V836ZM647.627 920.6V890.6H674.927V758H647.627V727.7H732.527V758H704.927V890.6H732.527V920.6H647.627ZM729.916 920.6V782H757.216V755H784.216V727.7H814.816V755H841.816V782H869.416V920.6H838.816V866.3H760.216V920.6H729.916ZM760.216 836H838.816V785H811.816V758H787.216V785H760.216V836ZM866.697 920.6V890.6H893.997V758H866.697V727.7H951.597V758H923.997V890.6H951.597V920.6H866.697ZM948.986 920.6V782H976.286V755H1003.29V727.7H1033.89V755H1060.89V782H1088.49V920.6H1057.89V866.3H979.286V920.6H948.986ZM979.286 836H1057.89V785H1030.89V758H1006.29V785H979.286V836ZM1085.77 920.6V890.6H1113.07V758H1085.77V727.7H1170.67V758H1143.07V890.6H1170.67V920.6H1085.77ZM1168.06 920.6V782H1195.36V755H1222.36V727.7H1252.96V755H1279.96V782H1307.56V920.6H1276.96V866.3H1198.36V920.6H1168.06ZM1198.36 836H1276.96V785H1249.96V758H1225.36V785H1198.36V836ZM1304.84 920.6V890.6H1332.14V758H1304.84V727.7H1389.74V758H1362.14V890.6H1389.74V920.6H1304.84ZM1387.13 920.6V782H1414.43V755H1441.43V727.7H1472.03V755H1499.03V782H1526.63V920.6H1496.03V866.3H1417.43V920.6H1387.13ZM1417.43 836H1496.03V785H1469.03V758H1444.43V785H1417.43V836ZM1523.91 920.6V890.6H1551.21V758H1523.91V727.7H1608.81V758H1581.21V890.6H1608.81V920.6H1523.91ZM1606.2 920.6V782H1633.5V755H1660.5V727.7H1691.1V755H1718.1V782H1745.7V920.6H1715.1V866.3H1636.5V920.6H1606.2ZM1636.5 836H1715.1V785H1688.1V758H1663.5V785H1636.5V836ZM1742.98 920.6V890.6H1770.28V758H1742.98V727.7H1827.88V758H1800.28V890.6H1827.88V920.6H1742.98ZM72.705 1055.6V917H100.005V890H127.005V862.7H157.605V890H184.605V917H212.205V1055.6H181.605V1001.3H103.005V1055.6H72.705ZM103.005 971H181.605V920H154.605V893H130.005V920H103.005V971ZM209.486 1055.6V1025.6H236.786V893H209.486V862.7H294.386V893H266.786V1025.6H294.386V1055.6H209.486ZM291.775 1055.6V917H319.075V890H346.075V862.7H376.675V890H403.675V917H431.275V1055.6H400.675V1001.3H322.075V1055.6H291.775ZM322.075 971H400.675V920H373.675V893H349.075V920H322.075V971ZM428.557 1055.6V1025.6H455.857V893H428.557V862.7H513.457V893H485.857V1025.6H513.457V1055.6H428.557ZM510.846 1055.6V917H538.146V890H565.146V862.7H595.746V890H622.746V917H650.346V1055.6H619.746V1001.3H541.146V1055.6H510.846ZM541.146 971H619.746V920H592.746V893H568.146V920H541.146V971ZM647.627 1055.6V1025.6H674.927V893H647.627V862.7H732.527V893H704.927V1025.6H732.527V1055.6H647.627ZM729.916 1055.6V917H757.216V890H784.216V862.7H814.816V890H841.816V917H869.416V1055.6H838.816V1001.3H760.216V1055.6H729.916ZM760.216 971H838.816V920H811.816V893H787.216V920H760.216V971ZM866.697 1055.6V1025.6H893.997V893H866.697V862.7H951.597V893H923.997V1025.6H951.597V1055.6H866.697ZM948.986 1055.6V917H976.286V890H1003.29V862.7H1033.89V890H1060.89V917H1088.49V1055.6H1057.89V1001.3H979.286V1055.6H948.986ZM979.286 971H1057.89V920H1030.89V893H1006.29V920H979.286V971ZM1085.77 1055.6V1025.6H1113.07V893H1085.77V862.7H1170.67V893H1143.07V1025.6H1170.67V1055.6H1085.77ZM1168.06 1055.6V917H1195.36V890H1222.36V862.7H1252.96V890H1279.96V917H1307.56V1055.6H1276.96V1001.3H1198.36V1055.6H1168.06ZM1198.36 971H1276.96V920H1249.96V893H1225.36V920H1198.36V971ZM1304.84 1055.6V1025.6H1332.14V893H1304.84V862.7H1389.74V893H1362.14V1025.6H1389.74V1055.6H1304.84ZM1387.13 1055.6V917H1414.43V890H1441.43V862.7H1472.03V890H1499.03V917H1526.63V1055.6H1496.03V1001.3H1417.43V1055.6H1387.13ZM1417.43 971H1496.03V920H1469.03V893H1444.43V920H1417.43V971ZM1523.91 1055.6V1025.6H1551.21V893H1523.91V862.7H1608.81V893H1581.21V1025.6H1608.81V1055.6H1523.91ZM1606.2 1055.6V917H1633.5V890H1660.5V862.7H1691.1V890H1718.1V917H1745.7V1055.6H1715.1V1001.3H1636.5V1055.6H1606.2ZM1636.5 971H1715.1V920H1688.1V893H1663.5V920H1636.5V971ZM1742.98 1055.6V1025.6H1770.28V893H1742.98V862.7H1827.88V893H1800.28V1025.6H1827.88V1055.6H1742.98ZM72.705 1190.6V1052H100.005V1025H127.005V997.7H157.605V1025H184.605V1052H212.205V1190.6H181.605V1136.3H103.005V1190.6H72.705ZM103.005 1106H181.605V1055H154.605V1028H130.005V1055H103.005V1106ZM209.486 1190.6V1160.6H236.786V1028H209.486V997.7H294.386V1028H266.786V1160.6H294.386V1190.6H209.486ZM291.775 1190.6V1052H319.075V1025H346.075V997.7H376.675V1025H403.675V1052H431.275V1190.6H400.675V1136.3H322.075V1190.6H291.775ZM322.075 1106H400.675V1055H373.675V1028H349.075V1055H322.075V1106ZM428.557 1190.6V1160.6H455.857V1028H428.557V997.7H513.457V1028H485.857V1160.6H513.457V1190.6H428.557ZM510.846 1190.6V1052H538.146V1025H565.146V997.7H595.746V1025H622.746V1052H650.346V1190.6H619.746V1136.3H541.146V1190.6H510.846ZM541.146 1106H619.746V1055H592.746V1028H568.146V1055H541.146V1106ZM647.627 1190.6V1160.6H674.927V1028H647.627V997.7H732.527V1028H704.927V1160.6H732.527V1190.6H647.627ZM729.916 1190.6V1052H757.216V1025H784.216V997.7H814.816V1025H841.816V1052H869.416V1190.6H838.816V1136.3H760.216V1190.6H729.916ZM760.216 1106H838.816V1055H811.816V1028H787.216V1055H760.216V1106ZM866.697 1190.6V1160.6H893.997V1028H866.697V997.7H951.597V1028H923.997V1160.6H951.597V1190.6H866.697ZM948.986 1190.6V1052H976.286V1025H1003.29V997.7H1033.89V1025H1060.89V1052H1088.49V1190.6H1057.89V1136.3H979.286V1190.6H948.986ZM979.286 1106H1057.89V1055H1030.89V1028H1006.29V1055H979.286V1106ZM1085.77 1190.6V1160.6H1113.07V1028H1085.77V997.7H1170.67V1028H1143.07V1160.6H1170.67V1190.6H1085.77ZM1168.06 1190.6V1052H1195.36V1025H1222.36V997.7H1252.96V1025H1279.96V1052H1307.56V1190.6H1276.96V1136.3H1198.36V1190.6H1168.06ZM1198.36 1106H1276.96V1055H1249.96V1028H1225.36V1055H1198.36V1106ZM1304.84 1190.6V1160.6H1332.14V1028H1304.84V997.7H1389.74V1028H1362.14V1160.6H1389.74V1190.6H1304.84ZM1387.13 1190.6V1052H1414.43V1025H1441.43V997.7H1472.03V1025H1499.03V1052H1526.63V1190.6H1496.03V1136.3H1417.43V1190.6H1387.13ZM1417.43 1106H1496.03V1055H1469.03V1028H1444.43V1055H1417.43V1106ZM1523.91 1190.6V1160.6H1551.21V1028H1523.91V997.7H1608.81V1028H1581.21V1160.6H1608.81V1190.6H1523.91ZM1606.2 1190.6V1052H1633.5V1025H1660.5V997.7H1691.1V1025H1718.1V1052H1745.7V1190.6H1715.1V1136.3H1636.5V1190.6H1606.2ZM1636.5 1106H1715.1V1055H1688.1V1028H1663.5V1055H1636.5V1106ZM1742.98 1190.6V1160.6H1770.28V1028H1742.98V997.7H1827.88V1028H1800.28V1160.6H1827.88V1190.6H1742.98Z" fill="black"/>
</svg>
